<svg viewBox="227.51597444089455 180 144.968051118211 239.99999999999986" xmlns="http://www.w3.org/2000/svg" xmlns:xlink="http://www.w3.org/1999/xlink" xmlns:blush="http://design.blush" overflow="visible" width="144.968051118211px" height="239.99999999999986px"><g id="Master/Stickers/Phone" stroke="none" stroke-width="1" fill="none" fill-rule="evenodd" blush:i="0"><g id="phone" transform="translate(227.000000, 180.000000)" fill-rule="nonzero" blush:i="0.0"><g id="stickers_expanded" blush:i="0.0.0"><path d="M142.72,170.55 C142.3,167.73 141.873333,164.893333 141.44,162.04 C139.87,151.63 138.24,140.87 136.87,130.28 C131.87,91.38 126.92,60.99 120.87,31.73 C118.87,21.94 115.41,10.03 106.54,4.73 C98.84,0.11 84.17,0.81 77.13,1.15 L75.91,1.21 C66.98,1.6 38.45,6.42 30.43,8.66 C29.02,9.05 27.6,9.42 26.18,9.78 C13.98,12.94 0.18,16.51 0.87,35.99 C1.46,51.87 3.96,68.34 6.37,84.28 C6.68333333,86.28 6.98666667,88.28 7.28,90.28 C9.87,107.6 13.4,128.14 16.81,148.02 C19.12,161.49 21.31,174.22 23.17,185.74 C24.1,191.49 28.83,216.63 33.31,225.61 C37.79,234.59 47.9,239.13 55.86,239.13 L56.53,239.13 C75.44,238.51 97,235.77 108.98,232.48 L108.98,232.48 L111.36,231.84 C122.92,228.74 140.36,224.07 144.14,207.7 C146.22,198.75 144.51,182.56 142.72,170.55 Z" id="Path" fill="#1A4E66" blush:i="0.0.0.0"/><path d="M72.21,9.58 C64.15,10.47 46.21,13 38.62,15.08 C25.7,18.62 14.3,19.43 14.88,37.61 C15.4,53.8 18.98,74.05 21.38,90.18 C25.29,116.43 31.99,152.5 36.23,178.76 C37.37,185.84 41.58,209.13 45.5,214.76 C49.42,220.39 55.82,220.89 60.32,220.76 C71.12,220.41 90.54,218.97 102.23,215.76 C112.87,212.85 130.65,209.76 135.23,197.04 C137.9,189.59 134.54,173.83 133.39,166.09 C131.6,154.09 129.67,141.66 128.1,129.38 C124.24,99.16 118.86,65.73 112.65,35.68 C110.92,27.31 107.92,16.8 100.13,12.33 C92.86,8.2 77.51,9 72.21,9.58 Z" id="Path" fill="#4B7A87" blush:i="0.0.0.1"/><path d="M63.42,231.36 C54.56,231.36 47.77,229.51 42.85,225.79 C35.71,220.39 32.72,205.04 30.73,194.88 L30.37,193.02 C28.22,182.14 25.95,169.02 23.75,156.34 C22.75,150.49 21.75,144.82 20.84,139.67 C17.73,122.21 9.98,77.67 5.32,41.74 C4.41,34.74 3.93,28.38 7.22,20.86 C7.66458929,19.8465576 8.84655748,19.385411 9.85999992,19.8300002 C10.8734424,20.2745894 11.3345891,21.4565575 10.89,22.47 C8.26,28.47 8.28,33.47 9.29,41.22 C13.94,77.11 21.67,121.53 24.78,138.97 C25.7,144.12 26.68,149.8 27.7,155.66 C29.89,168.32 32.15,181.42 34.29,192.24 L34.66,194.11 C36.41,203.11 39.34,218.11 45.26,222.6 C51.64,227.43 62.06,228.6 77.12,226.12 C78.66,225.87 80.56,225.59 82.74,225.27 C97.96,223.03 129.63,218.38 136.88,207.37 C137.267335,206.760175 137.95344,206.406638 138.67485,206.445146 C139.396259,206.483653 140.04083,206.908221 140.361046,207.555814 C140.681262,208.203407 140.627345,208.973355 140.22,209.57 C131.98,222.08 100.33,226.73 83.32,229.22 L77.77,230.06 C73.0297093,230.880808 68.2306244,231.315568 63.42,231.36 L63.42,231.36 Z" id="Path" fill="#0D323F" blush:i="0.0.0.2"/><path d="M8.61,88.28 C7.65061438,88.3013473 6.81128338,87.6382758 6.61,86.7 C6.14,84.56 5.4,79.85 4.85,76.27 C4.70404575,75.5469316 4.96794931,74.8022251 5.53663093,74.332404 C6.10531255,73.862583 6.88643644,73.7439312 7.56897874,74.023693 C8.25152104,74.3034547 8.72465862,74.9362055 8.8,75.67 C9.57,80.72 10.17,84.24 10.52,85.86 C10.6486901,86.4584004 10.4962804,87.0827833 10.1063561,87.5545918 C9.71643174,88.0264003 9.13192896,88.2936814 8.52,88.28 L8.61,88.28 Z" id="Path" fill="#0D323F" blush:i="0.0.0.3"/><path d="M5.85,71.1301132 C4.84943418,71.1405667 3.99503434,70.4100549 3.85,69.42 C3.13,64.49 2.45,59.55 2.19,57.42 C2.10246993,56.7054688 2.40278666,55.998518 2.97782378,55.5654492 C3.55286089,55.1323803 4.31525659,55.0389869 4.97782378,55.3204492 C5.64039096,55.6019115 6.10246993,56.2154688 6.19,56.93 C6.45,59.05 7.12,63.93 7.84,68.85 C7.91706142,69.3766837 7.78099056,69.912359 7.46191607,70.3384173 C7.14284158,70.7644756 6.66708938,71.045764 6.14,71.12 L5.85,71.1301132 Z" id="Path" fill="#0D323F" blush:i="0.0.0.4"/><path d="M70.34,159.910007 C69.5769926,159.911985 68.8793348,159.47966 68.5415101,158.795512 C68.2036853,158.111364 68.2845613,157.294608 68.75,156.69 C83.28,137.69 92.32,114.24 99.66,93.69 C99.8745003,92.98346 100.460839,92.4525838 101.18515,92.309116 C101.909461,92.1656482 102.653895,92.4329318 103.121528,93.0043582 C103.589162,93.5757846 103.703908,94.3583804 103.42,95.04 C95.42,117.39 86.1,140.62 71.93,159.11 C71.5544073,159.610807 70.9659931,159.906864 70.34,159.910007 Z" id="Path" fill="#80AAB1" blush:i="0.0.0.5"/><path d="M59.24,119.660014 C58.4549843,119.659007 57.7431392,119.198858 57.4199215,118.483469 C57.0967037,117.768081 57.2218886,116.929755 57.74,116.34 C66.89,105.86 75.91,89.9 82.49,72.56 C82.8821222,71.5272276 84.0372275,71.0078779 85.07,71.4000001 C86.1027724,71.7921222 86.6221221,72.9472275 86.23,73.98 C79.49,91.75 70.23,108.15 60.75,118.98 C60.3685599,119.414194 59.8179417,119.662155 59.24,119.660014 Z" id="Path" fill="#80AAB1" blush:i="0.0.0.6"/><path d="M51,93.15 C50.5626892,93.1492954 50.137662,93.0052779 49.79,92.74 C49.3673718,92.4171019 49.0907641,91.9391641 49.0213317,91.4118531 C48.9518993,90.8845421 49.0953613,90.3512926 49.42,89.93 C50.8849271,87.8433101 52.0778754,85.5783885 52.97,83.19 C53.6,81.71 54.25,80.19 55.05,78.68 C55.3787373,78.0363928 56.0291225,77.6201995 56.7512482,77.5913402 C57.4733739,77.5624809 58.1548976,77.9254454 58.5339472,78.5407663 C58.9129968,79.1560872 58.9306027,79.9280379 58.58,80.56 C57.86,81.9 57.27,83.28 56.65,84.75 C55.6331287,87.4523251 54.2682941,90.0105496 52.59,92.36 C52.212332,92.8570405 51.624245,93.1492346 51,93.15 Z" id="Path" fill="#80AAB1" blush:i="0.0.0.7"/></g></g></g></svg>